G:\RME\Thesis\opencap-processing\Data\089bb815-6ab6-4c35-820c-ac6f9c5db3e0\OpenSimData\Dynamics\squat\GRF_resultant_squat_0.mot
version=1
nRows=30
nColumns=19
inDegrees=yes
endheader 
time	ground_force_right_vx	ground_force_right_vy	ground_force_right_vz	ground_force_right_px	ground_force_right_py	ground_force_right_pz	ground_torque_right_x	ground_torque_right_y	ground_torque_right_z	ground_force_left_vx	ground_force_left_vy	ground_force_left_vz	ground_force_left_px	ground_force_left_py	ground_force_left_pz	ground_torque_left_x	ground_torque_left_y	ground_torque_left_z	
          0.66000000	        -28.21220927	        429.20839400	        -20.79390496	          1.10327872	          0.00000000	         -0.03952195	          0.00000000	         -1.47281153	          0.00000000	         11.92324471	        343.61730465	          2.40531538	          1.13537296	          0.00000000	         -0.47811692	          0.00000000	         -1.77696463	          0.00000000	
          0.68000000	        -26.53215752	        425.86585760	        -14.13572185	          1.10671965	          0.00000000	         -0.03909734	          0.00000000	         -0.94409379	          0.00000000	          7.91253850	        355.68880351	         -0.05466876	          1.13562433	          0.00000000	         -0.47786527	          0.00000000	         -1.75776099	          0.00000000	
          0.70000000	        -21.23273441	        425.43471520	         -8.02138440	          1.11030655	          0.00000000	         -0.03869582	          0.00000000	         -0.57916749	          0.00000000	         -0.11652452	        370.90714012	         -2.17204334	          1.13563903	          0.00000000	         -0.47759493	          0.00000000	         -1.74979954	          0.00000000	
          0.72000000	        -14.71822394	        427.00660097	         -6.17457428	          1.11399942	          0.00000000	         -0.03835644	          0.00000000	         -0.44408230	          0.00000000	         -9.24990145	        385.60516134	          0.59726719	          1.13560472	          0.00000000	         -0.47726722	          0.00000000	         -1.73244938	          0.00000000	
          0.74000000	         -5.67595255	        431.68276874	         -3.30278239	          1.11778070	          0.00000000	         -0.03798279	          0.00000000	         -0.43355017	          0.00000000	        -20.52370127	        403.67634767	          1.21624748	          1.13544259	          0.00000000	         -0.47699749	          0.00000000	         -1.74759508	          0.00000000	
          0.76000000	          2.43438891	        440.32608926	         -1.74542772	          1.12149863	          0.00000000	         -0.03763181	          0.00000000	         -0.59161728	          0.00000000	        -29.92631850	        424.65550230	          2.39554463	          1.13521127	          0.00000000	         -0.47671719	          0.00000000	         -1.81292171	          0.00000000	
          0.78000000	          7.99203804	        452.76264359	         -1.51615343	          1.12501859	          0.00000000	         -0.03731679	          0.00000000	         -0.84016292	          0.00000000	        -35.88181713	        447.32888186	          4.07160724	          1.13491460	          0.00000000	         -0.47643955	          0.00000000	         -1.91164712	          0.00000000	
          0.80000000	         10.20570919	        467.83567802	         -2.48040755	          1.12823116	          0.00000000	         -0.03704803	          0.00000000	         -1.09546794	          0.00000000	        -37.92283629	        469.44693053	          6.32709832	          1.13454660	          0.00000000	         -0.47618413	          0.00000000	         -2.01392367	          0.00000000	
          0.82000000	          8.87741739	        483.69405974	         -4.46582800	          1.13106368	          0.00000000	         -0.03683005	          0.00000000	         -1.28938080	          0.00000000	        -36.20251746	        488.34800801	          9.11888309	          1.13413147	          0.00000000	         -0.47597847	          0.00000000	         -2.07528302	          0.00000000	
          0.84000000	          4.42459757	        498.55259426	         -7.24940358	          1.13346374	          0.00000000	         -0.03666239	          0.00000000	         -1.38430520	          0.00000000	        -31.52954281	        501.72157062	         12.29324264	          1.13377336	          0.00000000	         -0.47585354	          0.00000000	         -2.04235948	          0.00000000	
          0.86000000	         -2.74524794	        511.28177792	         -9.65805898	          1.13537922	          0.00000000	         -0.03652727	          0.00000000	         -1.37495812	          0.00000000	        -24.60928825	        508.46739822	         14.79216038	          1.13364823	          0.00000000	         -0.47584288	          0.00000000	         -1.87453728	          0.00000000	
          0.88000000	        -10.95911168	        521.11891297	        -12.41585686	          1.13680970	          0.00000000	         -0.03643716	          0.00000000	         -1.27364895	          0.00000000	        -17.33588492	        508.82685249	         17.15963607	          1.13388606	          0.00000000	         -0.47593463	          0.00000000	         -1.55568294	          0.00000000	
          0.90000000	        -19.52702636	        527.99570461	        -13.71618910	          1.13780120	          0.00000000	         -0.03635201	          0.00000000	         -1.09821510	          0.00000000	        -10.09172068	        505.07717225	         18.01094165	          1.13449719	          0.00000000	         -0.47611675	          0.00000000	         -1.13524336	          0.00000000	
          0.92000000	        -27.90262190	        531.71136141	        -14.60036874	          1.13845008	          0.00000000	         -0.03628463	          0.00000000	         -0.85569879	          0.00000000	         -3.10044872	        499.93647435	         18.96652788	          1.13537137	          0.00000000	         -0.47631383	          0.00000000	         -0.65528341	          0.00000000	
          0.94000000	        -35.50939497	        532.06328714	        -15.10957106	          1.13883978	          0.00000000	         -0.03622841	          0.00000000	         -0.54811309	          0.00000000	          3.46928114	        495.99076499	         20.47705024	          1.13633798	          0.00000000	         -0.47647865	          0.00000000	         -0.14265617	          0.00000000	
          0.96000000	        -40.62026392	        528.92689174	        -17.60819724	          1.13902569	          0.00000000	         -0.03622057	          0.00000000	         -0.18749548	          0.00000000	          8.30031010	        494.79145428	         24.53648382	          1.13723595	          0.00000000	         -0.47656378	          0.00000000	          0.40227181	          0.00000000	
          0.98000000	        -40.98732289	        522.38456251	        -28.00399594	          1.13904407	          0.00000000	         -0.03634120	          0.00000000	          0.18798682	          0.00000000	          8.82688750	        497.12576427	         35.87670848	          1.13795420	          0.00000000	         -0.47651773	          0.00000000	          0.96676933	          0.00000000	
          1.00000000	        -36.95177376	        517.40846628	        -35.01366486	          1.13884818	          0.00000000	         -0.03635367	          0.00000000	          0.53340998	          0.00000000	          5.59395588	        505.14978690	         43.00047488	          1.13842497	          0.00000000	         -0.47655077	          0.00000000	          1.46527834	          0.00000000	
          1.02000000	        -30.94934411	        515.47361331	        -34.85790900	          1.13836794	          0.00000000	         -0.03622202	          0.00000000	          0.82140576	          0.00000000	          1.71054222	        517.83281682	         43.26985039	          1.13869748	          0.00000000	         -0.47666049	          0.00000000	          1.85955211	          0.00000000	
          1.04000000	        -23.90494920	        515.57832241	        -36.18377992	          1.13752435	          0.00000000	         -0.03615413	          0.00000000	          1.05384136	          0.00000000	         -2.52010615	        531.14517500	         45.25566392	          1.13884456	          0.00000000	         -0.47668708	          0.00000000	          2.17322549	          0.00000000	
          1.06000000	        -15.58102221	        517.12522322	        -35.66836784	          1.13615527	          0.00000000	         -0.03610913	          0.00000000	          1.26124923	          0.00000000	         -7.52326027	        540.03003701	         44.87462423	          1.13892849	          0.00000000	         -0.47673306	          0.00000000	          2.38786495	          0.00000000	
          1.08000000	         -6.85346293	        519.27081260	        -35.56222454	          1.13402953	          0.00000000	         -0.03617023	          0.00000000	          1.45452137	          0.00000000	        -12.46487072	        540.88702009	         44.45924567	          1.13902530	          0.00000000	         -0.47677574	          0.00000000	          2.47639756	          0.00000000	
          1.10000000	          1.96380908	        521.38591381	        -35.42597077	          1.13112514	          0.00000000	         -0.03633017	          0.00000000	          1.61796349	          0.00000000	        -17.66767288	        535.56419974	         43.54369275	          1.13911989	          0.00000000	         -0.47682839	          0.00000000	          2.44689504	          0.00000000	
          1.12000000	          9.71336345	        521.29006526	        -36.18595021	          1.12768825	          0.00000000	         -0.03656157	          0.00000000	          1.67385486	          0.00000000	        -22.59172265	        523.89130493	         43.41717142	          1.13921735	          0.00000000	         -0.47687516	          0.00000000	          2.30526784	          0.00000000	
          1.14000000	         15.25783834	        516.90233870	        -37.12622514	          1.12403366	          0.00000000	         -0.03679308	          0.00000000	          1.56084173	          0.00000000	        -26.55988260	        506.22728555	         43.61714617	          1.13931768	          0.00000000	         -0.47693349	          0.00000000	          2.07390516	          0.00000000	
          1.16000000	         17.29740423	        506.97144717	        -38.42664459	          1.12035399	          0.00000000	         -0.03699170	          0.00000000	          1.27582958	          0.00000000	        -28.83594044	        483.57731348	         44.25933180	          1.13941929	          0.00000000	         -0.47700826	          0.00000000	          1.79102555	          0.00000000	
          1.18000000	         15.99785625	        491.53743882	        -39.07818454	          1.11671215	          0.00000000	         -0.03713125	          0.00000000	          0.88547873	          0.00000000	        -29.03423591	        457.09177417	         44.10721659	          1.13951992	          0.00000000	         -0.47713155	          0.00000000	          1.49864963	          0.00000000	
          1.20000000	         10.65611786	        472.05986015	        -40.58904834	          1.11303117	          0.00000000	         -0.03724921	          0.00000000	          0.47400797	          0.00000000	        -26.21850288	        429.06476732	         44.52746837	          1.13962553	          0.00000000	         -0.47728055	          0.00000000	          1.23986255	          0.00000000	
          1.22000000	          2.79583011	        451.07957169	        -41.20480569	          1.10920302	          0.00000000	         -0.03733605	          0.00000000	          0.15379387	          0.00000000	        -21.14201892	        402.26935947	         43.15455205	          1.13970620	          0.00000000	         -0.47750971	          0.00000000	          1.04507717	          0.00000000	
          1.24000000	         -7.40316619	        431.10390102	        -41.98801874	          1.10508161	          0.00000000	         -0.03743809	          0.00000000	         -0.02811411	          0.00000000	        -13.51963475	        378.69162576	         40.76249482	          1.13976285	          0.00000000	         -0.47779647	          0.00000000	          0.92312169	          0.00000000	
